<svg width="20" height="260" xmlns="http://www.w3.org/2000/svg">
 <g>
  <title>Layer 1</title>
  <rect id="svg_1" height="260" width="20" fill="#ffffff" y="-120" x="120"/>
  <g id="svg_2"/>
  <g id="svg_14">
   <path id="svg_15" d="m133.242996,80.75l0,1.286003l-4.847,1.275993l0,0.019005l4.847,1.455002l0,1.211998l-4.847,1.426003l0,0.019997l4.847,1.306l0,1.248001l-6.598999,-1.929001l0,-1.137001l4.949005,-1.548996l0,-0.020004l-4.949005,-1.546997l0,-1.136002l6.598999,-1.93z" fill="#ffffff"/>
   <path id="svg_16" d="m132.636993,90.816002c0.181992,0 0.337997,0.064995 0.470993,0.200996c0.134003,0.133003 0.201004,0.305 0.201004,0.508003c0,0.205002 -0.063004,0.376999 -0.190994,0.517998s-0.28801,0.209999 -0.480011,0.209999c-0.190994,0 -0.35199,-0.069 -0.478989,-0.209999c-0.129013,-0.140999 -0.192001,-0.311996 -0.192001,-0.517998c0,-0.207001 0.065994,-0.375 0.199997,-0.508003c0.132004,-0.133995 0.289001,-0.200996 0.470001,-0.200996zm-1.519989,0.160995l0,1.119003l-4.475006,0l0,-1.119003l4.475006,0z" fill="#ffffff"/>
   <path id="svg_17" d="m133.690994,93.707001l0,1.118996l-7.047005,0l0,-1.118996l7.047005,0z" fill="#ffffff"/>
   <path id="svg_18" d="m133.690994,96.438004l0,1.118996l-7.047005,0l0,-1.118996l7.047005,0z" fill="#ffffff"/>
   <path id="svg_19" d="m133.242996,101.769997l0,4.260002l-1.026001,0l0,-3.084l-1.807999,0l0,2.907997l-0.987991,0l0,-2.907997l-2.776009,0l0,-1.176003l6.598,0l0,0z" fill="#ffffff"/>
   <path id="svg_20" d="m133.690994,107.308998l0,1.117004l-7.047005,0l0,-1.117004l7.047005,0z" fill="#ffffff"/>
   <path id="svg_21" d="m128.897995,109.759003c0.354004,0 0.675995,0.063995 0.964005,0.190994c0.289001,0.127007 0.537003,0.299004 0.740997,0.518005c0.205002,0.217995 0.363998,0.475998 0.477005,0.772995c0.110992,0.297005 0.167999,0.614006 0.167999,0.950005c0,0.334 -0.057007,0.651001 -0.167999,0.950996c-0.112,0.299004 -0.270996,0.556999 -0.477005,0.772003c-0.203995,0.218002 -0.451996,0.391998 -0.740997,0.518997c-0.289001,0.126999 -0.610992,0.191002 -0.964005,0.191002s-0.67601,-0.064003 -0.972008,-0.191002c-0.290001,-0.126999 -0.541,-0.300995 -0.746994,-0.518997c-0.209,-0.217003 -0.373001,-0.475998 -0.490005,-0.772003c-0.116997,-0.299995 -0.178001,-0.616997 -0.178001,-0.950996c0,-0.335999 0.061005,-0.652 0.178001,-0.950005c0.117004,-0.299995 0.281006,-0.557999 0.490005,-0.772995c0.209,-0.219002 0.456993,-0.390999 0.746994,-0.518005c0.29702,-0.126999 0.620018,-0.190994 0.972008,-0.190994zm0,1.137001c-0.17601,0 -0.348999,0.025993 -0.521988,0.079994c-0.174011,0.053001 -0.328003,0.131004 -0.465004,0.236c-0.138,0.105003 -0.249001,0.238998 -0.334,0.400002c-0.088005,0.162003 -0.134003,0.354004 -0.134003,0.578003c0,0.224998 0.045998,0.416 0.134003,0.575996c0.084999,0.164001 0.195999,0.297005 0.334,0.401001c0.137001,0.106003 0.292,0.184998 0.465004,0.238998c0.174988,0.051003 0.348999,0.080002 0.521988,0.080002c0.175003,0 0.346008,-0.027 0.518005,-0.080002c0.171005,-0.055 0.324997,-0.132996 0.462006,-0.238998c0.136993,-0.103996 0.246994,-0.238998 0.330994,-0.401001c0.083008,-0.159996 0.125,-0.352997 0.125,-0.575996s-0.041992,-0.416 -0.125,-0.578003c-0.082993,-0.161003 -0.194,-0.294998 -0.330994,-0.400002c-0.138,-0.104996 -0.292023,-0.183998 -0.462006,-0.236c-0.171997,-0.051994 -0.341995,-0.079994 -0.518005,-0.079994z" fill="#ffffff"/>
   <path id="svg_22" d="m131.117004,115.939003l0,1.073997l-0.747009,0l0,0.015999c0.262009,0.126999 0.472,0.301003 0.634003,0.522003c0.162003,0.225998 0.242004,0.486 0.242004,0.783997c0,0.042999 -0.001999,0.090004 -0.005005,0.140999c-0.002991,0.049004 -0.011002,0.092003 -0.022003,0.131004l-1.026001,0c0.019012,-0.075005 0.030014,-0.140999 0.037003,-0.192001c0.005005,-0.054001 0.009003,-0.104004 0.009003,-0.153c0,-0.254997 -0.046005,-0.459999 -0.140991,-0.612999c-0.094009,-0.156006 -0.206009,-0.277 -0.335007,-0.363998c-0.130997,-0.086006 -0.264008,-0.146004 -0.402008,-0.177002c-0.136993,-0.030998 -0.245987,-0.047005 -0.324997,-0.047005l-2.395996,0l0,-1.118996l4.477005,-0.002998l0,0z" fill="#ffffff"/>
   <path id="svg_23" d="m128.824997,123.667999c-0.052002,0 -0.102997,0 -0.147995,0c-0.052002,0 -0.100998,-0.001999 -0.149002,-0.010002l0,-3.402c-0.160995,0.012001 -0.309006,0.055 -0.442001,0.126007c-0.132996,0.070999 -0.249001,0.164993 -0.344002,0.281998c-0.097,0.119995 -0.172997,0.252998 -0.228996,0.400002c-0.055,0.148994 -0.084999,0.306 -0.084999,0.466995c0,0.278999 0.052002,0.516998 0.153,0.709999c0.103996,0.190002 0.244995,0.351006 0.426003,0.475006l-0.597,0.746994c-0.597,-0.443001 -0.896004,-1.083 -0.896004,-1.921997c0,-0.349998 0.056999,-0.667999 0.163002,-0.959999c0.108002,-0.292 0.263,-0.544998 0.461998,-0.761002c0.198997,-0.214996 0.442001,-0.380997 0.731003,-0.503998c0.288994,-0.121002 0.61599,-0.181999 0.982994,-0.181999c0.360001,0 0.688004,0.060997 0.983002,0.181999c0.294006,0.123001 0.546997,0.286995 0.755005,0.5c0.207993,0.210999 0.369995,0.460999 0.483994,0.75c0.115005,0.289001 0.173004,0.601997 0.173004,0.936996c0,0.312004 -0.050995,0.598999 -0.153,0.862999c-0.102997,0.264 -0.255997,0.491005 -0.457001,0.685005c-0.203003,0.191994 -0.455002,0.343994 -0.755005,0.450996c-0.302994,0.111 -0.653992,0.166 -1.057999,0.166zm0.503006,-1.117996c0.14299,0 0.278992,-0.021004 0.410004,-0.060005c0.12999,-0.042 0.244995,-0.103996 0.343994,-0.192001c0.100006,-0.086998 0.179993,-0.195999 0.238007,-0.329994c0.05899,-0.135002 0.088989,-0.291 0.088989,-0.472c0,-0.335999 -0.10199,-0.619003 -0.304001,-0.854004c-0.200989,-0.231995 -0.460999,-0.361 -0.778992,-0.388l0,2.293999l0.001999,0.002007l0,0z" fill="#ffffff"/>
   <path id="svg_24" d="m129.923996,127.435997c0.130997,-0.100998 0.24501,-0.237 0.341003,-0.409996c0.097,-0.176003 0.143997,-0.364998 0.143997,-0.568001c0,-0.181999 -0.035995,-0.346001 -0.110001,-0.495003c-0.074997,-0.146996 -0.199997,-0.223999 -0.373993,-0.223999c-0.173996,0 -0.296997,0.082001 -0.369003,0.248001c-0.070007,0.162003 -0.143997,0.403999 -0.218994,0.722c-0.03801,0.167 -0.087006,0.337997 -0.147003,0.508003c-0.061996,0.170998 -0.145996,0.325996 -0.25,0.467995c-0.102997,0.139 -0.229004,0.251999 -0.380997,0.339996c-0.151001,0.085999 -0.338013,0.129013 -0.556,0.129013c-0.272003,0 -0.505005,-0.05101 -0.694008,-0.151001c-0.188995,-0.103004 -0.345001,-0.239006 -0.460999,-0.411003c-0.119003,-0.172005 -0.205002,-0.369003 -0.258003,-0.596001c-0.052994,-0.229004 -0.079994,-0.463005 -0.079994,-0.705002c0,-0.348 0.063995,-0.688004 0.192001,-1.017998c0.126999,-0.328003 0.307999,-0.603004 0.544998,-0.819l0.687996,0.735001c-0.159996,0.125 -0.294998,0.286995 -0.398994,0.485001c-0.104004,0.198997 -0.158005,0.419998 -0.158005,0.662994c0,0.079002 0.011002,0.161003 0.028,0.247002c0.018005,0.083 0.048004,0.161003 0.088005,0.231003c0.042,0.070999 0.094994,0.128998 0.162994,0.171997c0.067001,0.044998 0.151001,0.065002 0.253006,0.065002c0.188004,0 0.317993,-0.085999 0.399994,-0.258003c0.080002,-0.170998 0.162003,-0.426003 0.240005,-0.768997c0.037994,-0.167999 0.085999,-0.332001 0.145004,-0.487999c0.059998,-0.160004 0.137985,-0.301003 0.233994,-0.426003c0.095993,-0.123001 0.214996,-0.223 0.358002,-0.296997c0.141998,-0.076004 0.319,-0.112 0.530991,-0.112c0.249008,0 0.462006,0.051994 0.643005,0.153s0.328003,0.237999 0.442001,0.404999c0.115005,0.168999 0.199005,0.355995 0.257004,0.568001c0.056992,0.210999 0.084,0.429001 0.084,0.650993c0,0.323006 -0.056,0.640007 -0.167999,0.946007c-0.112,0.307999 -0.283005,0.551994 -0.513,0.731003l-0.639008,-0.720009z" fill="#ffffff"/>
  </g>
  <rect id="svg_28" height="263.000002" width="23" y="-2.500002" x="-1" stroke-linecap="null" stroke-linejoin="null" stroke-dasharray="null" stroke-width="0" fill="#000000"/>
  <text transform="rotate(-90 9.19037 127.902) matrix(0.605318 0 0 0.605318 46.4783 9.83196)" xml:space="preserve" text-anchor="middle" font-family="Sans-serif" font-size="24" id="svg_27" y="203.198778" x="-61.075639" stroke-linecap="null" stroke-linejoin="null" stroke-dasharray="null" stroke-width="0" fill="#ffffff">Afinando un sueño</text>
  <rect id="svg_29" height="7" width="2" y="75.5" x="17" stroke-linecap="null" stroke-linejoin="null" stroke-dasharray="null" stroke-width="0" fill="#000000"/>
 </g>
</svg>